<mxfile host="app.diagrams.net" modified="2024-02-29T16:42:59.953Z" agent="Mozilla/5.0 (X11; Ubuntu; Linux x86_64; rv:123.0) Gecko/20100101 Firefox/123.0" version="24.0.0" etag="7lLltyHxbJtFViTZfqY5" type="github">
  <diagram name="Page-1" id="UXdB0pvu_ICugCTHPVds">
    <mxGraphModel>
      <root>
        <mxCell id="0" />
        <mxCell id="1" parent="0" />
      </root>
    </mxGraphModel>
  </diagram>
</mxfile>
